<svg xmlns="http://www.w3.org/2000/svg" width="27" height="19" viewBox="0 0 27 19"><g><g><path fill="none" stroke="#fff" stroke-miterlimit="50" stroke-width=".5" d="M19.182 15.661c4.945-.564 6.006-1.611 6.707-2.09-.039-1.48-1.355-4.076-4.465-3.353-1.449.279-3.279.05-4.43-.141l.032-.139a.365.365 0 0 0-.278-.437.368.368 0 0 0-.437.279l-.039.172c-.238-.047-.379-.072-.38-.061a5.173 5.173 0 0 1-.644-.509l.231-.28a.366.366 0 0 0-.05-.515.37.37 0 0 0-.518.051l-.174.212a8.89 8.89 0 0 1-.69-.886l.272-.192a.366.366 0 1 0-.42-.601l-.25.176a14.36 14.36 0 0 1-.397-.713l.258-.121a.367.367 0 0 0-.314-.665l-.272.127a19.931 19.931 0 0 1-.38-.849l.351-.166a.368.368 0 0 0-.316-.664l-.305.144a25.27 25.27 0 0 1-.342-.967l.277-.035a.366.366 0 1 0-.086-.728l-.416.051a43.118 43.118 0 0 1-.26-.932c-2.628.846-7.646 2.519-8.675.357-.369-.771-.71-1.17-1.236-.791-.413.299.306 1.077.476 1.662.07.243.135.518.192.803a.594.594 0 0 0-.31.592.595.595 0 0 0 .505.514l.012.101a.588.588 0 0 0-.409.678c.053.266.28.451.537.469.018.232.026.427.022.56-.014.629-.014.629-.025.867-.06.399-1 4.86-.666 5.752.921.67 8.546 1.192 8.546 1.192 1.17.347 4.702 1.539 8.766 1.076"/></g><g><path fill="none" stroke="#fff" stroke-miterlimit="50" stroke-width=".5" d="M1.12 17.065v0l1.082.43v0l.522-.641v0l.65.174v0l.168.685v0l.932.168v0l.326-.744v0l.992.168v0l.168.658v0l1.045.168v0l.232-.648v0l.684.113v0l.197.619v0h1.131v0l.75-1.371v0l3.434.742v0l.105.735v0l1.311.062v0l.195-.547v0l.988.11v0l.098.49v0h.972v0l.188-.586v0l.764-.06v0l.357.548v0l.85-.027v0l.185-.502v0l.912-.168v0l.307.432v0l1.189-.235v0-.586 0l.68-.093v0l.213.492v0l.898-.24v0-.567 0l.69-.168v0l.414.399v0l1.697-.885v0l-.217-1.85v0s-5.097 4.059-16.201 1.079c-6.931-.577-4.728-.397-8.58-1.079z"/></g></g></svg>