<svg xmlns="http://www.w3.org/2000/svg" width="26" height="18" viewBox="0 0 26 18"><g><g><path fill="#fff" d="M0 16.065l1.084.43.521-.641.65.174.168.685.931.168.325-.744.994.168.168.658 1.046.168.231-.648.685.113.195.619H8.13l.749-1.371 3.435.742.104.735 1.311.062.195-.547.989.11.098.49h.971l.189-.586.763-.06.357.548.85-.027.185-.502.912-.168.305.432 1.191-.235v-.586l.68-.093.213.492.898-.24v-.567l.692-.168.41.399 1.699-.885-.217-1.85s-5.097 4.059-16.202 1.079c-6.93-.577-4.728-.397-8.578-1.079z"/></g><g><path fill="#fff" d="M18.061 14.661c4.943-.564 6.006-1.611 6.707-2.09-.04-1.48-1.355-4.076-4.465-3.353-1.449.279-3.279.05-4.428-.141l.031-.139a.366.366 0 1 0-.716-.158l-.038.172c-.237-.047-.379-.072-.382-.061a5.585 5.585 0 0 1-.645-.509l.234-.28a.37.37 0 0 0-.05-.515.37.37 0 0 0-.519.051l-.174.212a8.605 8.605 0 0 1-.69-.886l.271-.192a.365.365 0 0 0 .093-.509.372.372 0 0 0-.513-.092l-.249.176a17.284 17.284 0 0 1-.399-.713l.261-.121a.369.369 0 0 0-.315-.665l-.272.127a17.702 17.702 0 0 1-.38-.849l.352-.166a.365.365 0 0 0 .173-.488.368.368 0 0 0-.489-.176l-.305.144c-.12-.312-.234-.636-.342-.967l.276-.035a.367.367 0 1 0-.084-.728l-.416.051a34.06 34.06 0 0 1-.26-.932c-2.629.846-7.647 2.519-8.678.357C1.281.415.942.016.415.395c-.41.299.307 1.077.476 1.662.07.243.135.518.195.803a.59.59 0 0 0-.313.592.594.594 0 0 0 .504.514c.004.035.011.066.013.101a.598.598 0 0 0-.413.678.598.598 0 0 0 .543.469c.017.232.025.427.022.56-.016.629-.016.629-.027.867-.06.399-1 4.86-.665 5.752.922.67 8.543 1.192 8.543 1.192 1.168.347 4.706 1.539 8.768 1.076"/></g></g></svg>