<svg xmlns="http://www.w3.org/2000/svg" width="433" height="4" viewBox="0 0 433 4"><g><g><path fill="#b8ba3b" d="M36.946 3.214s1.478-.174.687-.323c-1.662.148-.538-.07-2.05-.311-.869.301-1.659-.105-1.842.384-.538-.325-.394-.204-1.44-.439.465.265-1.978.264-1.91.582-.429-.363 1.768-.445.401-.823-.936.241-2.673.331-2.817.723-.694-.087-1.02-.224-2.05-.269.15-.007.309-.063.398-.094-1.983.264-4.905 0-6.024.475.4-.566-4.21-.069-2.698-.597-.827.019-2.13.259-2.414.365.09-.441-2.055-.112-2.953-.373-.445.237-1.823.17-2.73.29.323-.051.482-.123.354-.231-1.012.181-.76.009-1.623-.203-1.372.136.252.337-.577.544-1.188-.101-.179-.28-.394-.463l-1.769.445c-.358-.044-.612-.128-.756-.248-.61.129-1.156.317-2.017.104l1.517-.014-.58-.225-1.803.284C-.73 2.472.08 1.995.271 1.529l1.054-.082C1.29 1.289.567 1.198.102 1.19-.33 1.085 1.797.685 2.95.625c3.1.03.643.543 2.767.658l2.741-.271.033.158c.435.106.687-.069.802-.106-.187.235 2.231.077 3.346.114l-.4-.203c3.105-.483 4.9.513 7.353.258l1.731-.348.358.302c1.012-.179 1.192-.415 2.85-.308 5.832.529 12.101-.117 18.013.217-.045-.038-.128-.06-.267-.083 4.971.642 7.87-.809 12.44-.233l-.32.113c2.377-.06-.326.113 1.404.28.328-.369 3.022-.286 4.394-.422-.214.076-.686.067-1.082.121.257.083.36.302 1.046.234C61.676.578 64.95.632 67.364.475c.291.241 2.377.453 3.46.845.25-.088.696-.273 1.102-.454.874.156 1.528.036 2.152-.106-.769.004-1.447.009-1.965.018l.054-.024c-.079.015-.219.02-.337.029-.465.01-.733.022-.703.038-.923-.224.091-.183.028-.462.79.011 2.426-.087 2.608.125.474.004.787.035 1.281.078.3-.043.62-.067.976-.042l-.159.029c.056.04.13.064.204.09 1.546.12 3.722-.301 4.995-.495-1.253.353.302.4.324.653-.134-.019-1.605-.032-3.395-.038.14.028.251.074.286.167 1.7.273 2.903-.241 5.374-.051-.159.029-.477.088-.359.184.871.072 1.68-.133 1.88-.288.217.252 2.092.435 3.021.323.813-.207.696-.303 2.174-.282l-.649.178c1.68.144 1.445-.233 2.716-.128-.434-.025-.441.131-.05.165 1.82-.099 1.861-.196 3.164-.552l-.24.279c1.449-.157 4.11-.467 4.453-.19-.17-.5 3.457-.246 4.751-.234-.463.017-.547.139-.592.201 2.823-.383 5.715-.012 8.573-.018l.454.422c1.511-.017 1.941-.852 3.58-.833l-.593.203c2.904-.069 4.076-.033 6.426.04l-.046.283c.841-.132 1.892-.13 2.74-.263 1.916.688 7.61-.362 11.122.406l.222-.528c1.343.011 3.064-.095 3.694.302l-.298-.008c-.133.403 1.343.009 2.181.098.634-.044 1.268-.307.723-.387 3.566.268 8.865-.01 11.085.468 3.575-.173 6.273-.592 10.134-.538l-.045.062c1.302.072 3.911.215 3.904.654 2.78-.101 4.553-.707 7.87-.511l-.72.168c.841.088 2.19-.123 2.526-.175.294.009.08.097.038.158.794.151 1.265-.087 1.898-.13l-.257.149c2.641.302 6.81-.293 10.208-.22-.625.044-.293.212-.042.282 1.395-.491 5.22-.374 6.642-.487l-.877.192c2.772-.322 2.4.516 5.15.192l-1.58-.283c1.121.083 2.072-.011 1.805-.229 1.302.162.16.374 2.128.421.082.138-1.418.095-.772.272l2.723.366c.08.039.424.048 1.323.009-.238-.611 2.257-.032.89-.628 3.858-.046 7.116.359 10.428.076 1.358.594 6.57.022 6.238.787 1.872.007 3.39-.146 4.541-.456-.373-.061-.85.036-1.229.074.49-.195 2.743-.227 3.682-.224-1.23.174-3.219.323-4.182.616 1.7-.074 4.072-.36 5.02-.456l.433.395c1.433-.289 1.201.319 2.637-.07l-.27-.119c2.628.029 2.661-.364 5.106-.415l-.107.157c.842.061 2.09-.307 2.907.049l-1.595.015c.161.275 1.381.398 1.932.536 1.692-.072.596-.45 1.444-.487.36.259.087.139-.5.392 1.89-.091 4.435-.201 5.78-.532.083.04-.013.098-.013.098 1.966.047 3.698-.42 4.9-.199l-.38.038c1.574.379 4.072-.36 4.396.291.745.12-1.69-.027-.497.293 2.34.205 1.548-.545 3.603-.362-.282-.02-.192.019-.288.079 1.491-.015 3.468-.079 5.11-.145 2.016.528 6.175-.132 8.491.484-.673-.199.363-.246.554-.327-.017.02-.027.05.026.073.845.017.948-.19 1.265-.277.691.188 2.338-.202 2.777-.078.012-.137.688-.102 1.44-.099-1.508.154-.485.293-1.164.508 2.253.068 2.583-.602 4.927-.495l1.295.26c.264-.395 2.437-.235 2.388-.381.401.123.988.194.901.393.94-.096 2.342.106 2.731-.129L290.522.7c2.901.15 4.637-.417 6.872-.154l-.046.591c1.487.242 2.75-.325 4.036.033-.45-.198-.547-.139.405-.334-.564-.04-1.607.113-2.546.11L301.241.6l-3.113.167c1.333-.233 1.238-.174.692-.413 1.893-.19 2.044.284 3.846.053.654.081-.019.294.725.415 1.417-.186 2.711.285 3.788.187-.103.017-.172.042-.146.082 1.038-.056 1.783-.032 2.085-.21l-.89-.065c.78.016.91-.225 2.4-.087.858-.136 1.346-.428.41-.432.38-.038 1.213.121.918.299 2.323.007 1.112-.631 3.353-.349-.152.019-.315.048-.23.083.35.026.663.037.943.031-1.049.105.85.438-1.26.342.258.315 1.782.065 2.527.186 1.142-.213.126-.453.702-.608-.01.099.463.1 1.021.141l-.543-.237c.475 0 .941.002 1.51-.055l-.952.096c1.032.042 2.601.421 4.407.192-.48.098-1.435.289-.224.412 1.983-.152.462.1 1.582.28 1.97-.051.342-.425 3.25-.277.314.001.023-.138-.29-.203 1.859.108 2.926-.032 4.641.092-.642-.058-.977-.131-.007-.228-.485.194 1.58.182 2.326.303l.195-.119c.594.129-.043.179-.528.223.015-.04-.159-.078-.519-.068-.947.095-.604.55.898.593 1.608-.112 1.348-.428 1.073-.547 2.15.126 2.013-.544 4.068-.36.47 0 2.033.479 3.533.523.772-.273-1.862-.203-1-.436 2.484.678 5.104-.416 8.365-.01l-.408.332c.756.021 1.501.044 2.354.007l-1.117-.181c.757-.076 2.54-.01 1.957.243 1.712-.271 2.073-.112 3.667-.026-1.69-.028-.03-.047-1.265.126 1.772.163 1.91.051 3.137-.023-.203.118.442.298.917.298 1.146-.212 3.113-.166 4.717-.279l-.003.099c2.688-.127 5.607.334 8.316.04.05-.006.096-.006.135-.012l-.21-.021c-.933-.314 2.101-.221 2.927-.351.181.08.267.217.735.219.026-.296 1.046-.153 1.432-.29.932.102-.119.353 1.48.338.617-.025.69-.179.617-.291.337.151 1.357.267 2.2.302-.286.078-.748-.023-.939-.004-.108.157.462.101.447.298.748.021.302-.276 1.237-.173l-.868.232c.33.053.739-.016.959-.045-.48.07-.404.29-.327.421 2.173-.17.423-.627.538-.883 2.056.183 3.675-.125 5.273-.14l-.302.274c.778-.042 1.152-.104 1.435-.221l1.201-.002c-.692.098-.92.185-.972.405 1.276-.076 3.03-.007 3.36-.374l-.05.061c1.698.131 5.252.209 5.136.331 1.827-.121 4.144.09 4.195-.273 1.088-.087 2.823.469 3.602.013 1.291.241.07.098-.328.368 1.291.24 2.605-.373 3.034.15 1.51-.162-.349-.108.158-.339.32.486 2.801.078 4.214.355.634-.197-.644-.121.45-.33-.109.122.471.144.765.156l.28-.305 1.436.753c2.135-.358-.436-.523 2.41-.664l-.172.026c.773.315 2.03-.237 4.08.003-.703-.06-.289.146-.512.234l1.142-.124c-.102.017-.152.036-.042.072 1.005.229.871-.124 2.04.081-.805.063-.56.295-.206.403l1.673-.345-.68.416c1.631.033 4.054-.631 4.886-.059l-.81.063c.062.098.546.401 1.642.191.265-.039.46-.193.323-.255l.602.071c-.396.269-2.43.346-3.708.424.4-.112 1.39-.2 1.087-.37-1.138.088-2.223.27-3.322.36.45-.11.72-.283.931-.392-1.229-.143-.92.186-1.853.211-.355-.109-.597-.181-.362-.266-1.163.112-2.09.138-3.323-.006 0 0 1.391-.199.625-.355-2.265.163-2.716.493-5.157.681-2.83.457-5.488-.279-7.456.053-.108.123 1.472.215.194.293.222-.246-.766-.158-.829-.255-1.385.356-2.043-.079-3.024.165.23-.086-.577-.18-1.108-.264.153-.3-1.494-.125.424-.539-2.046.43-3.627-.12-5.153.57l.531.084-1.999-.135c-.901-.048-1.042.03-2.257-.283.524-.074 1.276-.075 1.8-.15-1.116-.266-2.315.225-3.548.24.057-.22 1.286-.077.922-.345-.877-.034-1.627.126-2.44.188l.115-.121c-2.175-.277-.849.599-2.442.188.05.073-.152.15-.053.221-.592-.129-1.975-.347-.604-.5-.756 0-1.616.105-2.002.243.641.18.8.089 1.04.319l-3.048.125c-.34 0 .251-.117.68-.119-3.58-.646-7.24.546-11.273-.23.455.198-.294.176-.682.312-1.309-.062-3.287-.01-4.498-.132l.386-.136c-3.114.167-5.26.382-7.316.297-.092.055.001-.162.313-.225-1.502.214-3.269-.544-3.678-.022l.56.042c-3-.089-6.322.294-9.422.361-.726-.317 1.787-.033 1.153-.409-2.15-.125-4.332.142-6.673.036.381-.038.294-.076.477-.097-2.33-.204.257.317-1.707.27.106-.156.01-.196-.642-.277l-.578.254c-.086-.036-.082-.195.126-.285-.944.29-3.42.087-4.087.39-.176-.079.313-.373.042-.492-1.042-.093-1.759.032-2.456.151l.004-.001c-.734-.221-2.525-.188-2.144-.225-1.876-.103-.297.176-1.722.369l1.495.141-2.64.07 1.046-.153c-1.212-.122-2.457.15-3.866.144l.645.181-1.608.112c-.159-.374-2.059-.085-1.176-.516-2.948-.184-4.856.285-7.52.326.321-.01.18-.08.265-.134-1.588-.085-2.544.11-3.495.303.194-.116.573-.155.58-.255-1.879-.004-1.14.214-3.216.326.574-.156.395-.236-.17-.277.086.138-.392.234-.773.274 1.538-.732-2.204-.316-1.382-.863-.376.157-2.982.442-2.458.712-2.936.246-6.017.02-9.316.205.286-.078 1.616-.211.767-.273-3.277-.109-5.183.278-8.488.465-.148-.474 3.576-.069 3.701-.52-3.482.107-7.066.272-10.939.514-1.352-.694-3.778.283-6.18-.258.228.232-.967.316-2.27.323.447-.189-.928-.194-.546-.331-1.143.213-4.44.301-4.31-.152-.299.437-2.45-.021-3.39.289-1.442-.164-3.09.092-4.898-.041.573.25-1.336.156-2.21.22.151-.02.282-.045.223-.069-.542-.239-2.082.209-3.102.068-.462-.1.114-.255-.636-.278-.017.197-2.76.425-3.777.185.471.001.48-.098.766-.174-4.815.336-9.95-.074-14.869.322l.872-.33c-3.072-.425-2.018.544-4.454.495-6.663-.16-13.577-.634-20.076-.42-.476.097.276.119.357.257-.567-.041-.727-.317-1.494-.143l.172.178c-2.968-.482-8.573.327-10.772-.428-2.84.284-4.84-.205-8.29.221-1.089-.158 1.265-.306-.206-.35l-3.168.275c-3.096.477-8.066-.614-11.879-.236l.165-.027c.09-.123-.708-.272-1.335-.23-.218.087.203.133.578.237-3.45.209-4.207.218-6.934.26 1.177-.184-1.093-.16-1.21-.416-.719.167.412.266-1.185.405-2.273.024-4.367-.197-6.253-.287-.765.228-1.768.165-1.819.447-2.566.015-3.996.127-7.148.125l-.08-.097c-.847.351-2.73-.178-3.318.024.087-.124.423-.175.34-.272l-1.433.113c.676-.106 1.062-.438-.116-.477-1.225.248.338.168-.26.37l-.369-.326c-.924.036-1.183.404-.054.502-3.152-.004-6.264.153-9.073.099l.3-.213c-1.557.079-3.658.077-4.58-.109-.044.062-.426.176-.178.246-1.694.263-.454-.249-1.78-.097.376-.049.72-.096.78-.185l-3.786.26c-.04-.157-2.34-.512-3.94-.372-.064.088.396.209.804.227l-1.024.079-.79-.368-1.484.323-.026-.309c-1.093.062-1.526.457-2.409.43-3.309-.196-2.636-.302-4.985-.594-.265.59-3.74-.021-4.337.402-3.139-.444-7.686-.175-11.8-.302l.337-.052c-1.758-.274-2 .447-3.897.328l.475-.088c-2.435-.314-6.706-.027-9.017.222.472-.088.234-.277-.51-.257-.63.116.611.413-.699.302.324-.057.068-.186-.23-.189l-1.284.294c-3.36-.203-7.312-.414-10.795-.245-.646-.103-.172-.21-.02-.31-2.762.061-5.509.307-8.002.36l-.253-.34c-1.22 0-.757.521-2.345.218-.355-.046 1.05-.021 1.486-.173-2.453-.258-1.448.331-3.79.294l.612-.385c-1.796-.226-2.048.204-2.7.43-2.522.452-1.793-.741-5.223-.402-.543.189.18.279-.363.469-2.413-.1-2.7.171-5.119.073-1.29-.573 1.23 0-.174-.536l1.838.131c-1.585-.303 1.441-.078 1.193-.417-1.187-.098-2.995.189-4.545.301 0-.256 1.801-.029 1.085-.377l-.795.106c.218-.075.257-.173.722-.166-.286-.241-.935-.014-1.694-.008-.05.128-.016.306.207.483a.667.667 0 0 0-.17-.068c-1.555.369-4.18.09-5.514.384.214-.076.032-.099-.039-.16-.94-.014-1.907.325-3.169.423-.687-.189.398-.566-1.623-.46-.359.211.54.581-1.154.573m11.701-.668zm86.065.374zm126.224.122c.067-.012.152-.02.25-.028a9.47 9.47 0 0 1-.25.028zm48.334-.468v.002a.395.395 0 0 1-.004-.002h.004zm0 .002a.666.666 0 0 0 .093.037l.564-.055c.066.205-.702.124-1.28.138.294-.033.604-.078.622-.12zm10.525-.086zm112.08-.619a.53.53 0 0 1 .218.025zm-48.58-.446l.006-.001h-.006zM316.487.336a5.989 5.989 0 0 1-.465.025c.116-.011.268-.02.465-.025zm-9.157.655c.094-.013.185-.032.275-.056.214.035-.04.036-.275.056zm-32.432.013c0 .009-.01.017-.03.024a.14.14 0 0 1 .03-.024zM92.578.875zM81.383.802a.06.06 0 0 0 0-.005c.013.001.013.003 0 .005zM71.155.828a6.873 6.873 0 0 0 0 0zM41.93.965c.143.019.257.033.347.048-.114-.015-.23-.03-.347-.048zM9.385 2.822zm16.434-.088l.105.004a.558.558 0 0 1-.105-.004zm109.294.131c-.134.018-.271.035-.401.055.155-.024.287-.042.4-.055zM383.22 1.434zm-76.042-.425zM76.48 2.366c-.41.013-.646.018-.816.022l.816-.016v-.006m3.322-.005c-.495-.081-1.278-.136-1.097-.202-.334-.005-.46.095-.344.192.533-.001 1.037 0 1.441.01M72.775.414a.503.503 0 0 0-.208.141c.016-.012.047-.024.062-.035.381-.019.671-.028.92-.034-.072-.056-.249-.112-.774-.072"/></g></g></svg>