<svg xmlns="http://www.w3.org/2000/svg" width="638" height="659" viewBox="0 0 638 659"><g><g clip-path="url(#clip-8C57C6CA-3BB1-46C2-94F3-088297DE3F2A)" opacity=".6"><path d="M.003 63.882c.014 4.97.465 9.935.815 14.887.388 5.424.648 10.868.98 16.301.33 5.44.66 10.882.971 16.326.522 9.033.927 18.07 1.241 27.109.38 10.79.411 21.582.4 32.376a627.059 627.059 0 0 1-.243 16.8c-.163 5.855-.198 11.711-.24 17.569-.08 11.652.173 23.31.49 34.956.264 9.687.675 19.372 1.073 29.052.475 11.5 1.015 22.991 1.7 34.477.21 3.567.438 7.134.667 10.7-.24.882.076 3.098-.182 3.976-.23 1.026.038 2.998.153 4.657.283 2.184.118 2.102.428 4.048.367 2.292.666 2.215.827 5.212.548 7.635 1.128 15.27 1.723 22.9.433 6.598.836 13.471 1.181 21.815.47 11.346.801 22.697 1.258 34.038.458 11.515.711 23.033.87 34.553.291 21.163-.062 42.33-1.018 63.47-.12 1.786-.24 3.581-.357 5.373-.259 3.631-.47 7.268-.63 10.908-.283 5.495-.357 11.004-.439 16.506-.167 11.04.16 22.095.497 33.13.28 9.156.672 18.303 1.02 27.454l.194 5.44c.197 3.417.244 6.835.127 10.255a2670.89 2670.89 0 0 0-.156 4.899c-.102 3.247-.225 6.5-.364 9.744-.385 9.795-1.216 19.545-2.3 29.28-.539 4.831-1.274 9.63-2.016 14.427-.26 1.571-.52 3.558-.784 5.126-.501 3.933-1.133 8.608-1.88 12.13H25.54c24.74 1.174 49.476 1.977 74.198 3.51 5.16.47 10.33 1.016 15.502 1.492 10.474 1.018 20.965 1.887 31.459 2.52 15.855 1.12 31.737 1.438 47.611 1.76 31.847.658 63.733-.626 95.558-1.956 26.397-1.11 52.784-2.657 79.176-4.042l15.705-.764c9.85-.787 19.705-.956 29.567-.497 4.71.211 9.422.421 14.135.623 9.367.396 18.739.88 28.103 1.428 28.251 1.532 56.377 4.826 84.445 9.12 13.93 2.124 27.78 5.036 41.615 7.972 4.534 1.033 9.067 2.065 13.6 3.109 12.025 2.104 26.001 4.752 37.871 7.949.65-.014 3.702-.308 3.702-.768V10.504H639c-8.369 0-16.767-1.015-25.129-2.334-29.16-4.597-58.457-6.472-87.801-7.985-9.716-.389-19.427-.074-29.144.125-14.331.059-28.649 1.98-42.93 3.374-15.653 1.531-31.354 2.636-47.023 3.947-15.692 1.302-31.384 2.652-47.084 3.882-26.055 2.065-52.123 3.68-78.195 4.926-31.112 1.501-62.241 1.643-93.374 1.594-1.757-.002-3.509-.019-5.264-.03.06-.317.108-1.279.17-1.597-.005-.225-.076-1.206-.194-1.206h-64.664c-9.726 0-19.453-.28-29.177-.374-16.416-.158-32.836.374-49.253.374H5.717v-.575c0 2.9-1.862 5.814-2.195 8.712C2.36 33.445 1.087 43.603.702 53.78c-.097 3.367-.75 6.735-.7 10.102"/></g></g></svg>